<?xml version="1.0" encoding="UTF-8"?>
<svg style="transform:rotate(180deg);transition:0.3s" version="1.1" viewBox="0 0 1440 200" xmlns="http://www.w3.org/2000/svg">
<defs>
<linearGradient id="a" x2="0" y1="1">
<stop stop-color="rgba(132, 88, 179, 1)" offset="0"/>
<stop stop-color="rgba(208, 189, 244, 1)" offset="1"/>
</linearGradient>
</defs>
<path d="m0 0 60 13.3c60 13.7 180 39.7 300 56.7s240 23 360 13.3c120-10.3 240-36.3 360-50 120-13.3 240-13.3 360 13.4 120 26.3 240 80.3 360 80 120 0.3 240-53.7 360-83.4 120-30.3 240-36.3 360-20 120 16.7 240 56.7 360 70 120 13.7 240-0.3 360-20 120-20.3 240-46.3 360-33.3s240 67 360 70 240-43 360-40 240 57 360 60 240-43 360-60 240-3 360 0 240-3 360 0 240 17 360 16.7c120 0.3 240-13.7 360-26.7s240-27 360-26.7c120-0.3 240 13.7 360 23.4 120 10.3 240 16.3 360 20 120 3.3 240 3.3 360 20 120 16.3 240 50.3 360 60 120 10.3 240-3.7 300-10l60-6.7v60h-60-300-360-360-360-360-360-360-360-360-360-360-360-360-360-360-360-360-360-360-360-360-360-360-300-60z" fill="url(#a)" style="transform:translate(0, 0px)"/>
</svg>
