<?xml version="1.0" standalone="no"?>
<svg xmlns:xlink="http://www.w3.org/1999/xlink" id="wave" style="transform:rotate(0deg); transition: 0.3s" viewBox="0 0 1440 320" version="1.1" xmlns="http://www.w3.org/2000/svg"><defs><linearGradient id="sw-gradient-0" x1="0" x2="0" y1="1" y2="0"><stop stop-color="rgba(132, 88, 179, 1)" offset="0%"/><stop stop-color="rgba(208, 189, 244, 1)" offset="100%"/></linearGradient></defs><path style="transform:translate(0, 0px); opacity:1" fill="url(#sw-gradient-0)" d="M0,96L60,90.7C120,85,240,75,360,85.3C480,96,600,128,720,160C840,192,960,224,1080,218.7C1200,213,1320,171,1440,170.7C1560,171,1680,213,1800,224C1920,235,2040,213,2160,202.7C2280,192,2400,192,2520,197.3C2640,203,2760,213,2880,192C3000,171,3120,117,3240,96C3360,75,3480,85,3600,117.3C3720,149,3840,203,3960,192C4080,181,4200,107,4320,74.7C4440,43,4560,53,4680,69.3C4800,85,4920,107,5040,144C5160,181,5280,235,5400,218.7C5520,203,5640,117,5760,117.3C5880,117,6000,203,6120,234.7C6240,267,6360,245,6480,240C6600,235,6720,245,6840,224C6960,203,7080,149,7200,154.7C7320,160,7440,224,7560,245.3C7680,267,7800,245,7920,224C8040,203,8160,181,8280,144C8400,107,8520,53,8580,26.7L8640,0L8640,320L8580,320C8520,320,8400,320,8280,320C8160,320,8040,320,7920,320C7800,320,7680,320,7560,320C7440,320,7320,320,7200,320C7080,320,6960,320,6840,320C6720,320,6600,320,6480,320C6360,320,6240,320,6120,320C6000,320,5880,320,5760,320C5640,320,5520,320,5400,320C5280,320,5160,320,5040,320C4920,320,4800,320,4680,320C4560,320,4440,320,4320,320C4200,320,4080,320,3960,320C3840,320,3720,320,3600,320C3480,320,3360,320,3240,320C3120,320,3000,320,2880,320C2760,320,2640,320,2520,320C2400,320,2280,320,2160,320C2040,320,1920,320,1800,320C1680,320,1560,320,1440,320C1320,320,1200,320,1080,320C960,320,840,320,720,320C600,320,480,320,360,320C240,320,120,320,60,320L0,320Z"/></svg>