<?xml version="1.0" standalone="no"?>
<svg xmlns:xlink="http://www.w3.org/1999/xlink" id="wave" style="transform:rotate(180deg); transition: 0.3s" viewBox="0 0 1440 200" version="1.1" xmlns="http://www.w3.org/2000/svg"><defs><linearGradient id="sw-gradient-0" x1="0" x2="0" y1="1" y2="0"><stop stop-color="rgba(132, 88, 179, 1)" offset="0%"/><stop stop-color="rgba(208, 189, 244, 1)" offset="100%"/></linearGradient></defs><path style="transform:translate(0, 0px); opacity:1" fill="url(#sw-gradient-0)" d="M0,0L60,13.3C120,27,240,53,360,70C480,87,600,93,720,83.3C840,73,960,47,1080,33.3C1200,20,1320,20,1440,46.7C1560,73,1680,127,1800,126.7C1920,127,2040,73,2160,43.3C2280,13,2400,7,2520,23.3C2640,40,2760,80,2880,93.3C3000,107,3120,93,3240,73.3C3360,53,3480,27,3600,40C3720,53,3840,107,3960,110C4080,113,4200,67,4320,70C4440,73,4560,127,4680,130C4800,133,4920,87,5040,70C5160,53,5280,67,5400,70C5520,73,5640,67,5760,70C5880,73,6000,87,6120,86.7C6240,87,6360,73,6480,60C6600,47,6720,33,6840,33.3C6960,33,7080,47,7200,56.7C7320,67,7440,73,7560,76.7C7680,80,7800,80,7920,96.7C8040,113,8160,147,8280,156.7C8400,167,8520,153,8580,146.7L8640,140L8640,200L8580,200C8520,200,8400,200,8280,200C8160,200,8040,200,7920,200C7800,200,7680,200,7560,200C7440,200,7320,200,7200,200C7080,200,6960,200,6840,200C6720,200,6600,200,6480,200C6360,200,6240,200,6120,200C6000,200,5880,200,5760,200C5640,200,5520,200,5400,200C5280,200,5160,200,5040,200C4920,200,4800,200,4680,200C4560,200,4440,200,4320,200C4200,200,4080,200,3960,200C3840,200,3720,200,3600,200C3480,200,3360,200,3240,200C3120,200,3000,200,2880,200C2760,200,2640,200,2520,200C2400,200,2280,200,2160,200C2040,200,1920,200,1800,200C1680,200,1560,200,1440,200C1320,200,1200,200,1080,200C960,200,840,200,720,200C600,200,480,200,360,200C240,200,120,200,60,200L0,200Z"/></svg>