<?xml version="1.0" standalone="no"?>
<svg xmlns:xlink="http://www.w3.org/1999/xlink" id="wave" style="transform:rotate(180deg); transition: 0.3s" viewBox="0 0 1440 130" version="1.1" xmlns="http://www.w3.org/2000/svg"><defs><linearGradient id="sw-gradient-0" x1="0" x2="0" y1="1" y2="0"><stop stop-color="rgba(132, 88, 179, 1)" offset="0%"/><stop stop-color="rgba(208, 189, 244, 1)" offset="100%"/></linearGradient></defs><path style="transform:translate(0, 0px); opacity:1" fill="url(#sw-gradient-0)" d="M0,39L48,47.7C96,56,192,74,288,69.3C384,65,480,39,576,36.8C672,35,768,56,864,71.5C960,87,1056,95,1152,88.8C1248,82,1344,61,1440,56.3C1536,52,1632,65,1728,78C1824,91,1920,104,2016,97.5C2112,91,2208,65,2304,62.8C2400,61,2496,82,2592,93.2C2688,104,2784,104,2880,93.2C2976,82,3072,61,3168,60.7C3264,61,3360,82,3456,91C3552,100,3648,95,3744,88.8C3840,82,3936,74,4032,62.8C4128,52,4224,39,4320,30.3C4416,22,4512,17,4608,17.3C4704,17,4800,22,4896,39C4992,56,5088,87,5184,95.3C5280,104,5376,91,5472,84.5C5568,78,5664,78,5760,73.7C5856,69,5952,61,6048,58.5C6144,56,6240,61,6336,56.3C6432,52,6528,39,6624,32.5C6720,26,6816,26,6864,26L6912,26L6912,130L6864,130C6816,130,6720,130,6624,130C6528,130,6432,130,6336,130C6240,130,6144,130,6048,130C5952,130,5856,130,5760,130C5664,130,5568,130,5472,130C5376,130,5280,130,5184,130C5088,130,4992,130,4896,130C4800,130,4704,130,4608,130C4512,130,4416,130,4320,130C4224,130,4128,130,4032,130C3936,130,3840,130,3744,130C3648,130,3552,130,3456,130C3360,130,3264,130,3168,130C3072,130,2976,130,2880,130C2784,130,2688,130,2592,130C2496,130,2400,130,2304,130C2208,130,2112,130,2016,130C1920,130,1824,130,1728,130C1632,130,1536,130,1440,130C1344,130,1248,130,1152,130C1056,130,960,130,864,130C768,130,672,130,576,130C480,130,384,130,288,130C192,130,96,130,48,130L0,130Z"/></svg>